<?xml version="1.0" encoding="utf-8"?>
<!-- Generator: Adobe Illustrator 17.1.0, SVG Export Plug-In . SVG Version: 6.00 Build 0)  -->
<!DOCTYPE svg PUBLIC "-//W3C//DTD SVG 1.1//EN" "http://www.w3.org/Graphics/SVG/1.1/DTD/svg11.dtd">
<svg version="1.1" id="Layer_1" xmlns="http://www.w3.org/2000/svg" xmlns:xlink="http://www.w3.org/1999/xlink" x="0px" y="0px"
	 viewBox="0 0 30.5 30.5" enable-background="new 0 0 30.5 30.5" xml:space="preserve">
<g>
	<defs>
		<rect id="SVGID_1_" x="0" y="0" width="30.5" height="30.5"/>
	</defs>
	<clipPath id="SVGID_2_">
		<use xlink:href="#SVGID_1_"  overflow="visible"/>
	</clipPath>
	<path clip-path="url(#SVGID_2_)" fill="#0076BE" d="M15.2,0C6.8,0,0,6.8,0,15.2c0,8.4,6.8,15.2,15.2,15.2c8.4,0,15.2-6.8,15.2-15.2
		C30.5,6.8,23.7,0,15.2,0"/>
</g>
<g>
	<defs>
		<path id="SVGID_3_" d="M0,15.2c0,8.4,6.8,15.2,15.2,15.2c8.4,0,15.2-6.8,15.2-15.2C30.5,6.8,23.7,0,15.2,0C6.8,0,0,6.8,0,15.2"/>
	</defs>
	<clipPath id="SVGID_4_">
		<use xlink:href="#SVGID_3_"  overflow="visible"/>
	</clipPath>
	
		<linearGradient id="SVGID_5_" gradientUnits="userSpaceOnUse" x1="-391.5348" y1="328.2271" x2="-391.0469" y2="328.2271" gradientTransform="matrix(-1.900000e-06 -43.6765 -43.6765 1.900000e-06 14351.042 -17074.2832)">
		<stop  offset="0" style="stop-color:#0054A6"/>
		<stop  offset="1" style="stop-color:#0077BE"/>
	</linearGradient>
	<rect x="0" y="0" clip-path="url(#SVGID_4_)" fill="url(#SVGID_5_)" width="30.5" height="30.5"/>
</g>
<g>
	<defs>
		<rect id="SVGID_6_" x="0" y="0" width="30.5" height="30.5"/>
	</defs>
	<clipPath id="SVGID_7_">
		<use xlink:href="#SVGID_6_"  overflow="visible"/>
	</clipPath>
	<path clip-path="url(#SVGID_7_)" fill="#FFFFFF" d="M15.8,21.3c-0.1-0.1-0.2-0.3-0.3-0.5c-0.1-0.2-0.1-0.5-0.1-0.9
		c0-0.9,0-1.7,0-2.6c0-0.9,0-1.8,0-2.8c0-0.7-0.1-1.3-0.3-1.8c-0.2-0.5-0.5-0.9-0.9-1.2c-0.4-0.3-0.9-0.5-1.4-0.7
		c-0.5-0.1-1.1-0.2-1.8-0.2c-0.8,0-1.5,0.1-2.3,0.4c-0.8,0.3-1.5,0.7-2.2,1.2L7,13.7h0.2c0.1-0.2,0.3-0.3,0.5-0.5
		c0.2-0.2,0.5-0.3,0.7-0.4c0.3-0.1,0.5-0.2,0.8-0.3c0.3-0.1,0.6-0.1,0.8-0.1c0.7,0,1.3,0.2,1.7,0.6c0.4,0.4,0.6,0.9,0.6,1.5
		c0,0.2,0,0.4-0.1,0.5c-0.1,0.1-0.2,0.3-0.4,0.4c-0.2,0.1-0.5,0.2-0.9,0.4c-0.4,0.1-0.9,0.3-1.6,0.4c-0.5,0.1-1,0.3-1.5,0.5
		c-0.4,0.2-0.8,0.4-1.1,0.7c-0.3,0.3-0.5,0.6-0.7,1c-0.2,0.4-0.3,0.8-0.3,1.4c0,0.4,0.1,0.8,0.2,1.1c0.1,0.4,0.3,0.7,0.6,1
		C7,22,7.3,22.3,7.8,22.4c0.4,0.2,0.9,0.2,1.6,0.2c0.7,0,1.3-0.2,1.8-0.5c0.5-0.3,0.9-0.7,1.3-1.2c0.2,0.5,0.5,1,0.8,1.2
		c0.4,0.3,0.8,0.4,1.4,0.4c0.4,0,0.7,0,1-0.1c0.3-0.1,0.7-0.2,1.2-0.4v-0.6c-0.2,0-0.5,0-0.6,0C16.1,21.4,15.9,21.4,15.8,21.3
		 M12.4,17.2c0,0.4,0,0.9,0,1.6c0,0.8-0.2,1.4-0.5,1.8c-0.3,0.4-0.8,0.6-1.3,0.6c-0.4,0-0.7-0.2-1-0.5c-0.2-0.3-0.4-0.8-0.4-1.4
		c0-0.6,0.1-1.1,0.3-1.4c0.2-0.3,0.5-0.6,0.8-0.8c0.3-0.2,0.7-0.3,1-0.5c0.4-0.1,0.7-0.3,1.1-0.5C12.4,16.5,12.4,16.8,12.4,17.2"/>
	<path clip-path="url(#SVGID_7_)" fill="#73CBCB" d="M20.6,8.2c0.5,0,1-0.2,1.3-0.5c0.4-0.4,0.5-0.8,0.5-1.3c0-0.5-0.2-1-0.5-1.3
		c-0.4-0.4-0.8-0.5-1.3-0.5c-0.5,0-1,0.2-1.3,0.5c-0.4,0.4-0.5,0.8-0.5,1.3c0,0.5,0.2,1,0.5,1.3C19.6,8.1,20.1,8.2,20.6,8.2"/>
	<path clip-path="url(#SVGID_7_)" fill="#FFFFFF" d="M22.2,13.4c0-0.9,0.1-1.7,0.2-2.6c-0.4,0.1-1,0.1-1.8,0.1c-0.4,0-0.7,0-1,0
		c-0.3,0-0.6-0.1-0.8-0.1c0.1,0.9,0.1,1.7,0.2,2.6c0,0.9,0,1.8,0,2.7v1c0,1,0,1.9,0,2.7c0,0.9-0.1,1.7-0.2,2.5c0.2,0,0.5,0,0.8,0h1
		h1c0.3,0,0.6,0,0.8,0c-0.1-0.8-0.1-1.6-0.2-2.5c0-0.9,0-1.8,0-2.7v-1C22.2,15.2,22.2,14.3,22.2,13.4"/>
</g>
</svg>
